<svg width="209" height="51" viewBox="0 0 209 51" fill="none" xmlns="http://www.w3.org/2000/svg">
<path d="M0.835227 40V12.7273H4.88352V16.8466H5.16761C5.66477 15.4972 6.56439 14.4022 7.86648 13.5618C9.16856 12.7214 10.6364 12.3011 12.2699 12.3011C12.5777 12.3011 12.9624 12.3071 13.424 12.3189C13.8857 12.3307 14.2348 12.3485 14.4716 12.3722V16.6335C14.3295 16.598 14.004 16.5447 13.495 16.4737C12.9979 16.3909 12.4711 16.3494 11.9148 16.3494C10.589 16.3494 9.4053 16.6276 8.36364 17.1839C7.33381 17.7285 6.51705 18.486 5.91335 19.4567C5.3215 20.4155 5.02557 21.5104 5.02557 22.7415V40H0.835227ZM21.6882 40.5682C19.2261 40.5682 17.0658 39.9822 15.2074 38.8104C13.3608 37.6385 11.9167 35.9991 10.875 33.892C9.84517 31.785 9.33026 29.3229 9.33026 26.5057C9.33026 23.6648 9.84517 21.1849 10.875 19.0661C11.9167 16.9472 13.3608 15.3018 15.2074 14.13C17.0658 12.9581 19.2261 12.3722 21.6882 12.3722C24.1503 12.3722 26.3047 12.9581 28.1513 14.13C30.0097 15.3018 31.4538 16.9472 32.4837 19.0661C33.5253 21.1849 34.0462 23.6648 34.0462 26.5057C34.0462 29.3229 33.5253 31.785 32.4837 33.892C31.4538 35.9991 30.0097 37.6385 28.1513 38.8104C26.3047 39.9822 24.1503 40.5682 21.6882 40.5682ZM21.6882 36.804C23.5585 36.804 25.0973 36.3246 26.3047 35.3658C27.5121 34.407 28.4058 33.1463 28.9858 31.5838C29.5658 30.0213 29.8558 28.3286 29.8558 26.5057C29.8558 24.6828 29.5658 22.9841 28.9858 21.4098C28.4058 19.8355 27.5121 18.563 26.3047 17.5923C25.0973 16.6217 23.5585 16.1364 21.6882 16.1364C19.8179 16.1364 18.2791 16.6217 17.0717 17.5923C15.8643 18.563 14.9706 19.8355 14.3906 21.4098C13.8106 22.9841 13.5206 24.6828 13.5206 26.5057C13.5206 28.3286 13.8106 30.0213 14.3906 31.5838C14.9706 33.1463 15.8643 34.407 17.0717 35.3658C18.2791 36.3246 19.8179 36.804 21.6882 36.804ZM43.4512 50.7955C41.427 50.7955 39.687 50.535 38.231 50.0142C36.775 49.5052 35.5617 48.8305 34.5911 47.9901C33.6323 47.1615 32.8688 46.2737 32.3006 45.3267L35.6387 42.983C36.0175 43.4801 36.4969 44.0483 37.0769 44.6875C37.6569 45.3385 38.45 45.9008 39.4561 46.3743C40.4741 46.8596 41.8058 47.1023 43.4512 47.1023C45.6529 47.1023 47.4699 46.5696 48.9022 45.5043C50.3345 44.4389 51.0506 42.7699 51.0506 40.4972V34.9574H50.6955C50.3877 35.4545 49.9498 36.0701 49.3816 36.804C48.8252 37.526 48.0203 38.1712 46.9668 38.7393C45.9251 39.2957 44.5165 39.5739 42.7409 39.5739C40.5392 39.5739 38.5624 39.053 36.8105 38.0114C35.0705 36.9697 33.6915 35.4545 32.6735 33.4659C31.6673 31.4773 31.1642 29.0625 31.1642 26.2216C31.1642 23.428 31.6555 20.9955 32.638 18.924C33.6204 16.8407 34.9876 15.2308 36.7395 14.0945C38.4914 12.9463 40.5156 12.3722 42.812 12.3722C44.5875 12.3722 45.9962 12.6681 47.0378 13.2599C48.0913 13.84 48.8962 14.5028 49.4526 15.2486C50.0208 15.9825 50.4587 16.5862 50.7665 17.0597H51.1926V12.7273H55.2409V40.7812C55.2409 43.125 54.7083 45.0308 53.6429 46.4986C52.5894 47.9782 51.169 49.0613 49.3816 49.7479C47.606 50.4463 45.6292 50.7955 43.4512 50.7955ZM43.3091 35.8097C44.99 35.8097 46.4105 35.425 47.5705 34.6555C48.7305 33.8861 49.6124 32.7794 50.2161 31.3352C50.8198 29.8911 51.1216 28.1629 51.1216 26.1506C51.1216 24.1856 50.8257 22.4515 50.2338 20.9482C49.642 19.4448 48.766 18.267 47.606 17.4148C46.446 16.5625 45.0137 16.1364 43.3091 16.1364C41.5336 16.1364 40.0539 16.5862 38.8702 17.4858C37.6983 18.3854 36.8165 19.5928 36.2246 21.108C35.6446 22.6231 35.3546 24.304 35.3546 26.1506C35.3546 28.0445 35.6505 29.7195 36.2424 31.1754C36.8461 32.6196 37.7338 33.7559 38.9057 34.5845C40.0894 35.4013 41.5572 35.8097 43.3091 35.8097ZM66.3461 40.5682C63.7182 40.5682 61.4514 39.9882 59.5456 38.8281C57.6517 37.6562 56.1898 36.0227 55.16 33.9276C54.142 31.8205 53.633 29.3703 53.633 26.5767C53.633 23.7831 54.142 21.321 55.16 19.1903C56.1898 17.0478 57.6221 15.3788 59.4569 14.1832C61.3034 12.9759 63.4578 12.3722 65.9199 12.3722C67.3404 12.3722 68.7431 12.6089 70.128 13.0824C71.513 13.5559 72.7736 14.3253 73.91 15.3906C75.0463 16.4441 75.9519 17.8409 76.6266 19.581C77.3013 21.321 77.6387 23.4635 77.6387 26.0085V27.7841H56.6159V24.1619H73.3773C73.3773 22.6231 73.0695 21.25 72.454 20.0426C71.8503 18.8352 70.9862 17.8823 69.8617 17.1839C68.749 16.4856 67.4351 16.1364 65.9199 16.1364C64.2509 16.1364 62.8068 16.5507 61.5875 17.3793C60.3801 18.196 59.4509 19.2614 58.7999 20.5753C58.1489 21.8892 57.8233 23.2978 57.8233 24.8011V27.2159C57.8233 29.2756 58.1784 31.0215 58.8887 32.4538C59.6107 33.8743 60.611 34.9574 61.8894 35.7031C63.1678 36.437 64.6534 36.804 66.3461 36.804C67.4469 36.804 68.4412 36.6501 69.329 36.3423C70.2286 36.0227 71.004 35.5492 71.655 34.9219C72.306 34.2827 72.8091 33.4896 73.1642 32.5426L77.2125 33.679C76.7864 35.0521 76.0703 36.2595 75.0641 37.3011C74.0579 38.331 72.815 39.1359 71.3354 39.7159C69.8558 40.2841 68.1926 40.5682 66.3461 40.5682ZM63.7892 9.03409L68.1216 0.795453H73.0222L67.4824 9.03409H63.7892ZM76.013 40V12.7273H80.0613V16.8466H80.3453C80.8425 15.4972 81.7421 14.4022 83.0442 13.5618C84.3463 12.7214 85.8141 12.3011 87.4476 12.3011C87.7554 12.3011 88.1401 12.3071 88.6017 12.3189C89.0634 12.3307 89.4126 12.3485 89.6493 12.3722V16.6335C89.5073 16.598 89.1818 16.5447 88.6728 16.4737C88.1756 16.3909 87.6489 16.3494 87.0925 16.3494C85.7668 16.3494 84.583 16.6276 83.5414 17.1839C82.5115 17.7285 81.6948 18.486 81.0911 19.4567C80.4992 20.4155 80.2033 21.5104 80.2033 22.7415V40H76.013ZM86.6165 40V12.7273H90.8068V40H86.6165ZM88.7472 8.18182C87.9304 8.18182 87.2261 7.90365 86.6342 7.3473C86.0542 6.79096 85.7642 6.12216 85.7642 5.34091C85.7642 4.55966 86.0542 3.89086 86.6342 3.33452C87.2261 2.77817 87.9304 2.5 88.7472 2.5C89.5639 2.5 90.2623 2.77817 90.8423 3.33452C91.4342 3.89086 91.7301 4.55966 91.7301 5.34091C91.7301 6.12216 91.4342 6.79096 90.8423 7.3473C90.2623 7.90365 89.5639 8.18182 88.7472 8.18182ZM101.561 40.5682C99.0991 40.5682 96.9389 39.9822 95.0804 38.8104C93.2338 37.6385 91.7897 35.9991 90.748 33.892C89.7182 31.785 89.2033 29.3229 89.2033 26.5057C89.2033 23.6648 89.7182 21.1849 90.748 19.0661C91.7897 16.9472 93.2338 15.3018 95.0804 14.13C96.9389 12.9581 99.0991 12.3722 101.561 12.3722C104.023 12.3722 106.178 12.9581 108.024 14.13C109.883 15.3018 111.327 16.9472 112.357 19.0661C113.398 21.1849 113.919 23.6648 113.919 26.5057C113.919 29.3229 113.398 31.785 112.357 33.892C111.327 35.9991 109.883 37.6385 108.024 38.8104C106.178 39.9822 104.023 40.5682 101.561 40.5682ZM101.561 36.804C103.432 36.804 104.97 36.3246 106.178 35.3658C107.385 34.407 108.279 33.1463 108.859 31.5838C109.439 30.0213 109.729 28.3286 109.729 26.5057C109.729 24.6828 109.439 22.9841 108.859 21.4098C108.279 19.8355 107.385 18.563 106.178 17.5923C104.97 16.6217 103.432 16.1364 101.561 16.1364C99.691 16.1364 98.1522 16.6217 96.9448 17.5923C95.7374 18.563 94.8437 19.8355 94.2637 21.4098C93.6837 22.9841 93.3936 24.6828 93.3936 26.5057C93.3936 28.3286 93.6837 30.0213 94.2637 31.5838C94.8437 33.1463 95.7374 34.407 96.9448 35.3658C98.1522 36.3246 99.691 36.804 101.561 36.804ZM112.884 40V3.63636H117.074V17.0597H117.429C117.737 16.5862 118.163 15.9825 118.708 15.2486C119.264 14.5028 120.057 13.84 121.087 13.2599C122.129 12.6681 123.537 12.3722 125.313 12.3722C127.609 12.3722 129.633 12.9463 131.385 14.0945C133.137 15.2427 134.504 16.8703 135.487 18.9773C136.469 21.0843 136.961 23.5701 136.961 26.4347C136.961 29.3229 136.469 31.8265 135.487 33.9453C134.504 36.0523 133.143 37.6858 131.403 38.8459C129.663 39.9941 127.657 40.5682 125.384 40.5682C123.632 40.5682 122.229 40.2782 121.176 39.6982C120.122 39.1063 119.311 38.4375 118.743 37.6918C118.175 36.9342 117.737 36.3068 117.429 35.8097H116.932V40H112.884ZM117.003 26.3636C117.003 28.4233 117.305 30.2403 117.909 31.8146C118.512 33.3771 119.394 34.6023 120.554 35.4901C121.714 36.366 123.135 36.804 124.816 36.804C126.568 36.804 128.029 36.3423 129.201 35.419C130.385 34.4839 131.273 33.2292 131.865 31.6548C132.468 30.0687 132.77 28.3049 132.77 26.3636C132.77 24.446 132.474 22.7178 131.882 21.179C131.302 19.6283 130.421 18.4032 129.237 17.5036C128.065 16.5921 126.591 16.1364 124.816 16.1364C123.111 16.1364 121.679 16.5684 120.519 17.4325C119.359 18.2848 118.483 19.4804 117.891 21.0192C117.299 22.5462 117.003 24.3277 117.003 26.3636ZM143.396 40.6392C141.668 40.6392 140.099 40.3137 138.691 39.6626C137.282 38.9998 136.163 38.0469 135.335 36.804C134.506 35.5492 134.092 34.0341 134.092 32.2585C134.092 30.696 134.4 29.4295 135.015 28.4588C135.631 27.4763 136.453 26.7069 137.483 26.1506C138.513 25.5942 139.65 25.1799 140.892 24.9077C142.147 24.6236 143.408 24.3987 144.674 24.233C146.332 24.0199 147.675 23.8601 148.705 23.7536C149.747 23.6352 150.504 23.4399 150.978 23.1676C151.463 22.8954 151.706 22.4219 151.706 21.7472V21.6051C151.706 19.8532 151.226 18.492 150.267 17.5213C149.32 16.5507 147.882 16.0653 145.953 16.0653C143.952 16.0653 142.384 16.5033 141.248 17.3793C140.111 18.2552 139.312 19.1903 138.85 20.1847L134.873 18.7642C135.583 17.107 136.53 15.8168 137.714 14.8935C138.91 13.9583 140.212 13.3073 141.62 12.9403C143.041 12.5616 144.438 12.3722 145.811 12.3722C146.687 12.3722 147.693 12.4787 148.829 12.6918C149.977 12.893 151.084 13.3132 152.15 13.9524C153.227 14.5916 154.12 15.5563 154.831 16.8466C155.541 18.1368 155.896 19.8651 155.896 22.0312V40H151.706V36.3068H151.493C151.208 36.8987 150.735 37.532 150.072 38.2067C149.409 38.8814 148.527 39.4555 147.426 39.929C146.326 40.4025 144.982 40.6392 143.396 40.6392ZM144.035 36.875C145.692 36.875 147.089 36.5495 148.225 35.8984C149.374 35.2474 150.238 34.407 150.818 33.3771C151.41 32.3473 151.706 31.2642 151.706 30.1278V26.2926C151.528 26.5057 151.137 26.701 150.534 26.8786C149.942 27.0443 149.255 27.1922 148.474 27.3224C147.705 27.4408 146.953 27.5473 146.219 27.642C145.497 27.7249 144.911 27.7959 144.461 27.8551C143.372 27.9972 142.354 28.228 141.407 28.5476C140.472 28.8554 139.715 29.3229 139.135 29.9503C138.566 30.5658 138.282 31.4062 138.282 32.4716C138.282 33.9276 138.821 35.0284 139.898 35.7741C140.987 36.508 142.366 36.875 144.035 36.875ZM157.267 50.2273C156.556 50.2273 155.923 50.1681 155.367 50.0497C154.81 49.9432 154.426 49.8366 154.213 49.7301L155.278 46.0369C156.296 46.2973 157.195 46.392 157.977 46.321C158.758 46.25 159.45 45.9008 160.054 45.2734C160.67 44.6579 161.232 43.6577 161.741 42.2727L162.522 40.142L152.437 12.7273H156.982L164.511 34.4602H164.795L172.323 12.7273H176.869L165.292 43.9773C164.771 45.3859 164.126 46.5518 163.357 47.4751C162.587 48.4103 161.694 49.1027 160.676 49.5526C159.669 50.0024 158.533 50.2273 157.267 50.2273ZM184.858 40.5682C182.23 40.5682 179.963 39.9882 178.057 38.8281C176.163 37.6562 174.702 36.0227 173.672 33.9276C172.654 31.8205 172.145 29.3703 172.145 26.5767C172.145 23.7831 172.654 21.321 173.672 19.1903C174.702 17.0478 176.134 15.3788 177.969 14.1832C179.815 12.9759 181.97 12.3722 184.432 12.3722C185.852 12.3722 187.255 12.6089 188.64 13.0824C190.025 13.5559 191.285 14.3253 192.422 15.3906C193.558 16.4441 194.464 17.8409 195.138 19.581C195.813 21.321 196.15 23.4635 196.15 26.0085V27.7841H175.128V24.1619H191.889C191.889 22.6231 191.581 21.25 190.966 20.0426C190.362 18.8352 189.498 17.8823 188.373 17.1839C187.261 16.4856 185.947 16.1364 184.432 16.1364C182.763 16.1364 181.318 16.5507 180.099 17.3793C178.892 18.196 177.963 19.2614 177.312 20.5753C176.661 21.8892 176.335 23.2978 176.335 24.8011V27.2159C176.335 29.2756 176.69 31.0215 177.4 32.4538C178.122 33.8743 179.123 34.9574 180.401 35.7031C181.68 36.437 183.165 36.804 184.858 36.804C185.959 36.804 186.953 36.6501 187.841 36.3423C188.74 36.0227 189.516 35.5492 190.167 34.9219C190.818 34.2827 191.321 33.4896 191.676 32.5426L195.724 33.679C195.298 35.0521 194.582 36.2595 193.576 37.3011C192.57 38.331 191.327 39.1359 189.847 39.7159C188.367 40.2841 186.704 40.5682 184.858 40.5682ZM194.525 40V12.7273H198.573V16.8466H198.857C199.354 15.4972 200.254 14.4022 201.556 13.5618C202.858 12.7214 204.326 12.3011 205.959 12.3011C206.267 12.3011 206.652 12.3071 207.113 12.3189C207.575 12.3307 207.924 12.3485 208.161 12.3722V16.6335C208.019 16.598 207.693 16.5447 207.184 16.4737C206.687 16.3909 206.161 16.3494 205.604 16.3494C204.278 16.3494 203.095 16.6276 202.053 17.1839C201.023 17.7285 200.206 18.486 199.603 19.4567C199.011 20.4155 198.715 21.5104 198.715 22.7415V40H194.525Z" fill="white"/>
</svg>
